<svg width="100" height="100" viewBox="0 0 100 100" fill="none" xmlns="http://www.w3.org/2000/svg">
<path d="M70.1875 12H29.8125C19.9749 12 12 19.9749 12 29.8125V70.1875C12 80.0251 19.9749 88 29.8125 88H70.1875C80.0251 88 88 80.0251 88 70.1875V29.8125C88 19.9749 80.0251 12 70.1875 12Z" fill="#F4F2ED"/>
<mask id="mask0_345_11" style="mask-type:luminance" maskUnits="userSpaceOnUse" x="30" y="20" width="40" height="60">
<path d="M30.1094 20.3125H69.7006V79.6875H30.1094V20.3125Z" fill="white"/>
</mask>
<g mask="url(#mask0_345_11)">
<path d="M40.0093 79.6875C45.4718 79.6875 49.905 75.2543 49.905 69.7918V59.8958H40.0093C34.5468 59.8958 30.1133 64.3293 30.1133 69.7918C30.1133 75.2543 34.5468 79.6875 40.0093 79.6875Z" fill="#0ACF83"/>
<path d="M30.1133 50C30.1133 44.5375 34.5468 40.1042 40.0093 40.1042H49.905V59.8957H40.0093C34.5468 59.8957 30.1133 55.4625 30.1133 50Z" fill="#A259FF"/>
<path d="M30.1133 30.2082C30.1133 24.7457 34.5468 20.3125 40.0093 20.3125H49.905V40.1043H40.0093C34.5468 40.1043 30.1133 35.6707 30.1133 30.2082Z" fill="#F24E1E"/>
<path d="M49.905 20.3125H59.8008C65.2633 20.3125 69.6968 24.7457 69.6968 30.2082C69.6968 35.6707 65.2633 40.1043 59.8008 40.1043H49.905V20.3125Z" fill="#FF7262"/>
<path d="M69.6968 50C69.6968 55.4625 65.2633 59.8957 59.8008 59.8957C54.3383 59.8957 49.905 55.4625 49.905 50C49.905 44.5375 54.3383 40.1042 59.8008 40.1042C65.2633 40.1042 69.6968 44.5375 69.6968 50Z" fill="#1ABCFE"/>
</g>
</svg>
