<svg width="76" height="76" viewBox="0 0 76 76" fill="none" xmlns="http://www.w3.org/2000/svg">
<g clip-path="url(#clip0_345_11)">
<path d="M58.1875 0H17.8125C7.97493 0 0 7.97493 0 17.8125V58.1875C0 68.0251 7.97493 76 17.8125 76H58.1875C68.0251 76 76 68.0251 76 58.1875V17.8125C76 7.97493 68.0251 0 58.1875 0Z" fill="#F4F2ED"/>
<mask id="mask0_345_11" style="mask-type:luminance" maskUnits="userSpaceOnUse" x="18" y="8" width="40" height="60">
<path d="M18.1094 8.3125H57.7006V67.6875H18.1094V8.3125Z" fill="white"/>
</mask>
<g mask="url(#mask0_345_11)">
<path d="M28.0093 67.6875C33.4718 67.6875 37.905 63.2543 37.905 57.7918V47.8958H28.0093C22.5468 47.8958 18.1133 52.3293 18.1133 57.7918C18.1133 63.2543 22.5468 67.6875 28.0093 67.6875Z" fill="#0ACF83"/>
<path d="M18.1133 38C18.1133 32.5375 22.5468 28.1042 28.0093 28.1042H37.905V47.8957H28.0093C22.5468 47.8957 18.1133 43.4625 18.1133 38Z" fill="#A259FF"/>
<path d="M18.1133 18.2082C18.1133 12.7457 22.5468 8.3125 28.0093 8.3125H37.905V28.1043H28.0093C22.5468 28.1043 18.1133 23.6707 18.1133 18.2082Z" fill="#F24E1E"/>
<path d="M37.905 8.3125H47.8008C53.2633 8.3125 57.6968 12.7457 57.6968 18.2082C57.6968 23.6707 53.2633 28.1043 47.8008 28.1043H37.905V8.3125Z" fill="#FF7262"/>
<path d="M57.6968 38C57.6968 43.4625 53.2633 47.8957 47.8008 47.8957C42.3383 47.8957 37.905 43.4625 37.905 38C37.905 32.5375 42.3383 28.1042 47.8008 28.1042C53.2633 28.1042 57.6968 32.5375 57.6968 38Z" fill="#1ABCFE"/>
</g>
</g>
<defs>
<clipPath id="clip0_345_11">
<rect width="76" height="76" fill="white"/>
</clipPath>
</defs>
</svg>
