<svg width="100" height="100" viewBox="0 0 100 100" fill="none" xmlns="http://www.w3.org/2000/svg">
<g clip-path="url(#clip0_357_18)">
<path d="M68.5938 17H31.4062C22.3453 17 15 24.3453 15 33.4062V70.5938C15 79.6547 22.3453 87 31.4062 87H68.5938C77.6547 87 85 79.6547 85 70.5938V33.4062C85 24.3453 77.6547 17 68.5938 17Z" fill="#330000"/>
<path d="M48.8332 58.6535H37.9832L35.7664 65.5078C35.7082 65.7703 35.4749 65.9453 35.2124 65.916H29.7289C29.4082 65.916 29.3207 65.741 29.4082 65.391L38.7999 38.3535C38.8874 38.062 38.9749 37.741 39.0914 37.391C39.2082 36.7785 39.2664 36.137 39.2664 35.4953C39.2374 35.3495 39.3539 35.2035 39.4999 35.1745H47.0539C47.2874 35.1745 47.4039 35.262 47.4332 35.4078L58.0789 65.4495C58.1664 65.7703 58.0789 65.916 57.7874 65.916H51.6914C51.4874 65.9453 51.2832 65.7995 51.2249 65.5953L48.8332 58.6535ZM39.6749 52.7328H47.0832C46.9082 52.1203 46.6749 51.391 46.4124 50.6328C46.1499 49.8453 45.8874 48.9995 45.6249 48.1245C45.3332 47.2203 45.0707 46.3453 44.7789 45.441C44.4874 44.537 44.2249 43.691 43.9914 42.8453C43.7582 42.0288 43.5539 41.2703 43.3499 40.5703H43.2914C43.0289 41.8245 42.7082 43.0788 42.2999 44.3328C41.8624 45.7328 41.4249 47.191 40.9582 48.6495C40.5816 50.0261 40.1535 51.3882 39.6749 52.7328ZM64.5832 40.2785C63.6207 40.3078 62.6874 39.9285 61.9874 39.2578C61.3167 38.5285 60.9667 37.566 60.9957 36.5745C60.9667 35.5828 61.3457 34.6495 62.0457 33.9785C62.7457 33.3075 63.6792 32.9578 64.6417 32.9578C65.7792 32.9578 66.6542 33.3078 67.2957 33.9785C67.9422 34.6856 68.2875 35.6169 68.2582 36.5745C68.2874 37.566 67.9374 38.5285 67.2374 39.2578C66.5667 39.9578 65.5749 40.337 64.5832 40.2785ZM61.3167 65.5953V43.137C61.3167 42.8453 61.4332 42.7285 61.6957 42.7285H67.4707C67.7332 42.7285 67.8499 42.8745 67.8499 43.137V65.5953C67.8499 65.916 67.7332 66.062 67.4707 66.062H61.7542C61.4624 66.062 61.3167 65.887 61.3167 65.5953Z" fill="#FF9A00"/>
</g>
<defs>
<clipPath id="clip0_357_18">
<rect width="70" height="70" fill="white" transform="translate(15 17)"/>
</clipPath>
</defs>
</svg>
