<svg width="30" height="30" viewBox="0 0 30 30" fill="none" xmlns="http://www.w3.org/2000/svg">
<path d="M10.1125 2.5H21.1375C25.3375 2.5 28.75 5.9125 28.75 10.1125V21.1375C28.75 23.1565 27.948 25.0927 26.5204 26.5204C25.0927 27.948 23.1565 28.75 21.1375 28.75H10.1125C5.9125 28.75 2.5 25.3375 2.5 21.1375V10.1125C2.5 8.09354 3.30203 6.15727 4.72965 4.72965C6.15727 3.30203 8.09354 2.5 10.1125 2.5ZM9.85 5.125C8.59685 5.125 7.39503 5.62281 6.50892 6.50892C5.62281 7.39503 5.125 8.59685 5.125 9.85V21.4C5.125 24.0119 7.23812 26.125 9.85 26.125H21.4C22.6531 26.125 23.855 25.6272 24.7411 24.7411C25.6272 23.855 26.125 22.6531 26.125 21.4V9.85C26.125 7.23812 24.0119 5.125 21.4 5.125H9.85ZM22.5156 7.09375C22.9507 7.09375 23.368 7.2666 23.6757 7.57428C23.9834 7.88195 24.1562 8.29925 24.1562 8.73438C24.1562 9.1695 23.9834 9.5868 23.6757 9.89447C23.368 10.2021 22.9507 10.375 22.5156 10.375C22.0805 10.375 21.6632 10.2021 21.3555 9.89447C21.0478 9.5868 20.875 9.1695 20.875 8.73438C20.875 8.29925 21.0478 7.88195 21.3555 7.57428C21.6632 7.2666 22.0805 7.09375 22.5156 7.09375ZM15.625 9.0625C17.3655 9.0625 19.0347 9.7539 20.2654 10.9846C21.4961 12.2153 22.1875 13.8845 22.1875 15.625C22.1875 17.3655 21.4961 19.0347 20.2654 20.2654C19.0347 21.4961 17.3655 22.1875 15.625 22.1875C13.8845 22.1875 12.2153 21.4961 10.9846 20.2654C9.7539 19.0347 9.0625 17.3655 9.0625 15.625C9.0625 13.8845 9.7539 12.2153 10.9846 10.9846C12.2153 9.7539 13.8845 9.0625 15.625 9.0625ZM15.625 11.6875C14.5807 11.6875 13.5792 12.1023 12.8408 12.8408C12.1023 13.5792 11.6875 14.5807 11.6875 15.625C11.6875 16.6693 12.1023 17.6708 12.8408 18.4092C13.5792 19.1477 14.5807 19.5625 15.625 19.5625C16.6693 19.5625 17.6708 19.1477 18.4092 18.4092C19.1477 17.6708 19.5625 16.6693 19.5625 15.625C19.5625 14.5807 19.1477 13.5792 18.4092 12.8408C17.6708 12.1023 16.6693 11.6875 15.625 11.6875Z" fill="#F9BFBF"/>
</svg>
