<svg width="100" height="100" viewBox="0 0 100 100" fill="none" xmlns="http://www.w3.org/2000/svg">
<path d="M65.2286 59.7797C66.9129 58.6281 69.2504 57.6312 69.2504 57.6312C69.2504 57.6312 62.5989 58.8344 55.9817 59.3844C47.8864 60.0547 39.1895 60.1922 34.8239 59.6078C24.4942 58.2328 40.4957 54.4344 40.4957 54.4344C40.4957 54.4344 34.2911 54.0219 26.6426 57.7C17.6192 62.0656 48.9864 64.0594 65.2286 59.7797ZM50.5504 54.2625C47.2848 46.9234 36.2676 40.4781 50.5504 29.2031C68.367 15.1437 59.2301 6 59.2301 6C62.9254 20.5234 46.2364 24.9234 40.2036 33.9469C36.0957 40.1172 42.2145 46.7344 50.5504 54.2625ZM70.2473 23.9781C70.2645 23.9781 40.1348 31.5062 54.5207 48.075C58.7661 52.9562 53.4036 57.3562 53.4036 57.3562C53.4036 57.3562 64.1801 51.7875 59.2301 44.8266C54.6067 38.3297 51.0661 35.0984 70.2473 23.9781ZM69.1989 70.4703C69.1049 70.6341 68.9893 70.7844 68.8551 70.9172C90.9067 65.125 82.7942 50.4812 72.2582 54.1937C71.6892 54.4028 71.1975 54.7806 70.8489 55.2766C71.4641 55.0539 72.0964 54.8814 72.7395 54.7609C78.0676 53.6437 85.7161 61.8937 69.1989 70.4703ZM77.3045 81.1781C77.3045 81.1781 79.7967 83.2234 74.5717 84.8219C64.6201 87.8297 33.1842 88.7406 24.4529 84.9422C21.3076 83.5844 27.2029 81.6766 29.0592 81.2812C30.9842 80.8687 32.1014 80.9375 32.1014 80.9375C28.6123 78.4797 9.53418 85.7672 22.4076 87.8469C57.5114 93.5531 86.4139 85.2859 77.3045 81.1781ZM38.8801 74.0625C25.3536 77.8437 47.1129 85.6469 64.3348 78.2734C62.6552 77.6209 61.0338 76.8274 59.4879 75.9016C51.8051 77.3625 48.2473 77.4656 41.2692 76.675C35.5114 76.0219 38.8801 74.0625 38.8801 74.0625ZM69.7832 90.7687C56.2567 93.3125 39.5676 93.0203 29.6848 91.3875C29.6848 91.3703 31.7129 93.0547 42.1286 93.725C57.9754 94.7391 82.3129 93.1578 82.8801 85.6641C82.8801 85.6641 81.7801 88.5 69.7832 90.7687ZM62.2895 66.6719C52.1145 68.6312 46.2192 68.5797 38.777 67.8062C33.0192 67.2047 36.7832 64.4203 36.7832 64.4203C21.8645 69.3703 45.0676 74.9734 65.9161 68.8719C64.5686 68.3961 63.334 67.6471 62.2895 66.6719Z" fill="black"/>
</svg>
