<svg width="66" height="88" viewBox="0 0 66 88" fill="none" xmlns="http://www.w3.org/2000/svg">
<g clip-path="url(#clip0_202_267)">
<path d="M47.7366 53.7797C49.421 52.6281 51.7585 51.6312 51.7585 51.6312C51.7585 51.6312 45.1069 52.8344 38.4897 53.3844C30.3944 54.0547 21.6976 54.1922 17.3319 53.6078C7.00224 52.2328 23.0038 48.4344 23.0038 48.4344C23.0038 48.4344 16.7991 48.0219 9.15068 51.7C0.127242 56.0656 31.4944 58.0594 47.7366 53.7797ZM33.0585 48.2625C29.7929 40.9234 18.7757 34.4781 33.0585 23.2031C50.8751 9.14375 41.7382 0 41.7382 0C45.4335 14.5234 28.7444 18.9234 22.7116 27.9469C18.6038 34.1172 24.7226 40.7344 33.0585 48.2625ZM52.7554 17.9781C52.7726 17.9781 22.6429 25.5062 37.0288 42.075C41.2741 46.9562 35.9116 51.3562 35.9116 51.3562C35.9116 51.3562 46.6882 45.7875 41.7382 38.8266C37.1147 32.3297 33.5741 29.0984 52.7554 17.9781ZM51.7069 64.4703C51.613 64.6341 51.4974 64.7844 51.3632 64.9172C73.4147 59.125 65.3022 44.4812 54.7663 48.1937C54.1973 48.4028 53.7056 48.7806 53.3569 49.2766C53.9722 49.0539 54.6045 48.8814 55.2476 48.7609C60.5757 47.6437 68.2241 55.8937 51.7069 64.4703ZM59.8126 75.1781C59.8126 75.1781 62.3047 77.2234 57.0797 78.8219C47.1282 81.8297 15.6922 82.7406 6.96099 78.9422C3.81568 77.5844 9.71099 75.6766 11.5672 75.2812C13.4922 74.8687 14.6094 74.9375 14.6094 74.9375C11.1204 72.4797 -7.95776 79.7672 4.91568 81.8469C40.0194 87.5531 68.9219 79.2859 59.8126 75.1781ZM21.3882 68.0625C7.86162 71.8437 29.621 79.6469 46.8429 72.2734C45.1632 71.6209 43.5418 70.8274 41.996 69.9016C34.3132 71.3625 30.7554 71.4656 23.7772 70.675C18.0194 70.0219 21.3882 68.0625 21.3882 68.0625ZM52.2913 84.7687C38.7647 87.3125 22.0757 87.0203 12.1929 85.3875C12.1929 85.3703 14.221 87.0547 24.6366 87.725C40.4835 88.7391 64.821 87.1578 65.3882 79.6641C65.3882 79.6641 64.2882 82.5 52.2913 84.7687ZM44.7976 60.6719C34.6226 62.6312 28.7272 62.5797 21.2851 61.8062C15.5272 61.2047 19.2913 58.4203 19.2913 58.4203C4.37255 63.3703 27.5757 68.9734 48.4241 62.8719C47.0767 62.3961 45.842 61.6471 44.7976 60.6719Z" fill="black"/>
</g>
<defs>
<clipPath id="clip0_202_267">
<rect width="66" height="88" fill="white"/>
</clipPath>
</defs>
</svg>
