<svg width="100" height="100" viewBox="0 0 100 100" fill="none" xmlns="http://www.w3.org/2000/svg">
<path d="M12.5 20.8333C12.5 18.6232 13.378 16.5036 14.9408 14.9408C16.5036 13.378 18.6232 12.5 20.8333 12.5H79.1667C81.3768 12.5 83.4964 13.378 85.0592 14.9408C86.622 16.5036 87.5 18.6232 87.5 20.8333V79.1667C87.5 81.3768 86.622 83.4964 85.0592 85.0592C83.4964 86.622 81.3768 87.5 79.1667 87.5H20.8333C18.6232 87.5 16.5036 86.622 14.9408 85.0592C13.378 83.4964 12.5 81.3768 12.5 79.1667V20.8333Z" stroke="black" stroke-width="2.5" stroke-linecap="round" stroke-linejoin="round"/>
<path d="M41.6667 33.3333H58.3334V58.3333C58.3334 60.5434 57.4554 62.663 55.8926 64.2258C54.3298 65.7886 52.2102 66.6666 50.0001 66.6666C47.7899 66.6666 45.6703 65.7886 44.1075 64.2258C42.5447 62.663 41.6667 60.5434 41.6667 58.3333" stroke="black" stroke-width="2.5" stroke-linecap="round" stroke-linejoin="round"/>
</svg>
