<svg width="76" height="76" viewBox="0 0 76 76" fill="none" xmlns="http://www.w3.org/2000/svg">
<g clip-path="url(#clip0_345_23)">
<path d="M13.4585 0.949951H62.5415C69.9835 0.949951 76 6.96642 76 14.4085V61.5914C76 69.0335 69.9835 75.05 62.5415 75.05H13.4585C6.01647 75.05 0 69.0335 0 61.5914V14.4085C0 6.96642 6.01647 0.949951 13.4585 0.949951Z" fill="#001E36"/>
<path d="M27.2336 19.7915C26.2836 19.7915 25.3336 19.7915 24.3522 19.8236C23.3701 19.855 22.4516 19.855 21.5966 19.8871C20.7416 19.9186 19.9501 19.9186 19.1901 19.95C18.4616 19.9815 17.9551 19.9815 17.4166 19.9815C17.1951 19.9815 17.1001 20.108 17.1001 20.33V52.915C17.1001 53.2 17.2266 53.3271 17.4801 53.3271H23.6236C23.8451 53.295 24.0036 53.105 23.9716 52.8836V42.7186C24.573 42.7186 25.0166 42.7186 25.3336 42.75C25.6501 42.7815 26.1566 42.7815 26.9166 42.7815C29.5136 42.7815 31.8886 42.4965 34.0416 41.705C36.1001 40.945 37.8736 39.615 39.1401 37.8415C40.4068 36.0682 41.0401 33.8198 41.0401 31.0965C41.0401 29.6715 40.7872 28.31 40.3122 26.98C39.8088 25.625 39.0204 24.3939 38.0001 23.37C36.7959 22.2001 35.3463 21.313 33.7566 20.773C31.983 20.108 29.8301 19.7915 27.2336 19.7915ZM27.9402 26.0288C29.0683 26.0502 30.1668 26.2473 31.1916 26.663C32.1101 27.0115 32.8701 27.645 33.4086 28.468C33.9137 29.3197 34.1663 30.2973 34.1372 31.2871C34.1372 32.68 33.8201 33.7571 33.1551 34.5486C32.458 35.34 31.5716 35.9421 30.5586 36.2271C29.3866 36.6071 28.1516 36.7965 26.9166 36.7965H25.238C24.858 36.7965 24.4472 36.765 24.0036 36.7336V26.0936C24.2251 26.0615 24.6686 26.03 25.3022 26.0621C25.9036 26.03 26.6316 26.03 27.4551 26.03C27.6174 26.0261 27.7791 26.0257 27.9402 26.0288ZM54.4986 27.6456C52.2501 27.6456 50.3816 27.9936 48.8936 28.7536C47.5322 29.3871 46.3601 30.4 45.5686 31.6665C44.8722 32.8386 44.4916 34.1365 44.4916 35.4986C44.4645 36.6188 44.7148 37.7284 45.2201 38.7286C45.8123 39.7935 46.6347 40.713 47.6272 41.42C49.0202 42.3728 50.5318 43.1393 52.1236 43.7C53.6751 44.3015 54.7201 44.7765 55.2272 45.188C55.7336 45.6 55.9872 46.0115 55.9872 46.455C55.9872 47.025 55.6386 47.5636 55.1322 47.785C54.5622 48.07 53.7072 48.2286 52.5036 48.2286C51.2372 48.2286 49.9701 48.07 48.7666 47.7536C47.3847 47.4449 46.0597 46.9214 44.8401 46.2021C44.7451 46.1386 44.6501 46.1071 44.5551 46.1706C44.4601 46.2336 44.4286 46.36 44.4286 46.455V51.965C44.3972 52.2186 44.5551 52.44 44.7772 52.5665C45.8041 53.0462 46.8903 53.3871 48.0072 53.58C49.4322 53.865 50.8566 53.9915 52.313 53.9915C54.593 53.9915 56.4936 53.6436 58.0451 52.9786C59.4701 52.4086 60.7051 51.4271 61.5916 50.16C62.4218 48.9144 62.8526 47.4453 62.8266 45.9486C62.8578 44.8179 62.6077 43.6972 62.0986 42.6871C61.4966 41.61 60.6416 40.7236 59.5966 40.0586C58.0678 39.0985 56.431 38.3225 54.7201 37.7465C53.9561 37.4303 53.2059 37.0816 52.4716 36.7015C52.0601 36.48 51.6801 36.195 51.3951 35.8465C51.2051 35.593 51.0786 35.3086 51.0786 35.0236C51.0786 34.7386 51.1736 34.4221 51.3316 34.1686C51.5536 33.8521 51.9016 33.63 52.313 33.535C52.9151 33.3771 53.5801 33.2815 54.213 33.313C55.4166 33.313 56.588 33.4715 57.7601 33.725C58.8372 33.9465 59.8501 34.295 60.8001 34.8021C60.9266 34.865 61.0851 34.865 61.3701 34.8021C61.4196 34.7654 61.4597 34.7176 61.4873 34.6625C61.5148 34.6074 61.529 34.5466 61.5286 34.485V29.3236C61.5286 29.1965 61.4966 29.07 61.4651 28.9436C61.4016 28.8171 61.2751 28.69 61.1486 28.6586C60.2752 28.3016 59.3601 28.0568 58.4251 27.93C57.1248 27.7407 55.8126 27.6461 54.4986 27.6456Z" fill="#31A8FF"/>
</g>
<defs>
<clipPath id="clip0_345_23">
<rect width="76" height="76" fill="white"/>
</clipPath>
</defs>
</svg>
