<svg width="100" height="100" viewBox="0 0 100 100" fill="none" xmlns="http://www.w3.org/2000/svg">
<path d="M25.4585 13H74.5415C81.9835 13 88 19.0165 88 26.4585V73.6415C88 81.0835 81.9835 87.1 74.5415 87.1H25.4585C18.0165 87.1 12 81.0835 12 73.6415V26.4585C12 19.0165 18.0165 13 25.4585 13Z" fill="#001E36"/>
<path d="M39.2336 31.8416C38.2836 31.8416 37.3336 31.8416 36.3522 31.8736C35.3701 31.9051 34.4516 31.9051 33.5966 31.9371C32.7416 31.9686 31.9501 31.9686 31.1901 32.0001C30.4616 32.0316 29.9551 32.0316 29.4166 32.0316C29.1951 32.0316 29.1001 32.158 29.1001 32.3801V64.9651C29.1001 65.2501 29.2266 65.3771 29.4801 65.3771H35.6236C35.8451 65.3451 36.0036 65.1551 35.9716 64.9336V54.7686C36.573 54.7686 37.0166 54.7686 37.3336 54.8001C37.6501 54.8316 38.1566 54.8316 38.9166 54.8316C41.5136 54.8316 43.8886 54.5466 46.0416 53.7551C48.1001 52.9951 49.8736 51.6651 51.1401 49.8916C52.4068 48.1182 53.0401 45.8699 53.0401 43.1466C53.0401 41.7216 52.7872 40.3601 52.3122 39.0301C51.8088 37.6751 51.0204 36.444 50.0001 35.4201C48.7959 34.2502 47.3463 33.363 45.7566 32.823C43.983 32.158 41.8301 31.8416 39.2336 31.8416ZM39.9402 38.0789C41.0683 38.1003 42.1668 38.2974 43.1916 38.713C44.1101 39.0616 44.8701 39.6951 45.4086 40.518C45.9137 41.3697 46.1663 42.3474 46.1372 43.3371C46.1372 44.7301 45.8201 45.8071 45.1551 46.5986C44.458 47.3901 43.5716 47.9921 42.5586 48.2771C41.3866 48.6571 40.1516 48.8466 38.9166 48.8466H37.238C36.858 48.8466 36.4472 48.8151 36.0036 48.7836V38.1436C36.2251 38.1116 36.6686 38.0801 37.3022 38.1121C37.9036 38.0801 38.6316 38.0801 39.4551 38.0801C39.6174 38.0761 39.7791 38.0757 39.9402 38.0789ZM66.4986 39.6957C64.2501 39.6957 62.3816 40.0436 60.8936 40.8036C59.5322 41.4371 58.3601 42.4501 57.5686 43.7166C56.8722 44.8886 56.4916 46.1866 56.4916 47.5486C56.4645 48.6689 56.7148 49.7784 57.2201 50.7786C57.8123 51.8436 58.6347 52.7631 59.6272 53.4701C61.0202 54.4229 62.5318 55.1894 64.1236 55.7501C65.6751 56.3516 66.7201 56.8266 67.2272 57.238C67.7336 57.6501 67.9872 58.0616 67.9872 58.5051C67.9872 59.0751 67.6386 59.6136 67.1322 59.8351C66.5622 60.1201 65.7072 60.2786 64.5036 60.2786C63.2372 60.2786 61.9701 60.1201 60.7666 59.8036C59.3847 59.495 58.0597 58.9715 56.8401 58.2521C56.7451 58.1886 56.6501 58.1571 56.5551 58.2207C56.4601 58.2836 56.4286 58.4101 56.4286 58.5051V64.0151C56.3972 64.2686 56.5551 64.4901 56.7772 64.6166C57.8041 65.0963 58.8903 65.4371 60.0072 65.6301C61.4322 65.9151 62.8566 66.0416 64.313 66.0416C66.593 66.0416 68.4936 65.6936 70.0451 65.0286C71.4701 64.4586 72.7051 63.4771 73.5916 62.2101C74.4218 60.9645 74.8526 59.4953 74.8266 57.9986C74.8578 56.8679 74.6077 55.7472 74.0986 54.7371C73.4966 53.6601 72.6416 52.7736 71.5966 52.1086C70.0678 51.1486 68.431 50.3725 66.7201 49.7966C65.9561 49.4803 65.2059 49.1317 64.4716 48.7516C64.0601 48.5301 63.6801 48.2451 63.3951 47.8966C63.2051 47.643 63.0786 47.3586 63.0786 47.0736C63.0786 46.7886 63.1736 46.4721 63.3316 46.2186C63.5536 45.9021 63.9016 45.6801 64.313 45.5851C64.9151 45.4271 65.5801 45.3316 66.213 45.363C67.4166 45.363 68.588 45.5216 69.7601 45.7751C70.8372 45.9966 71.8501 46.3451 72.8001 46.8521C72.9266 46.9151 73.0851 46.9151 73.3701 46.8521C73.4196 46.8155 73.4597 46.7677 73.4873 46.7126C73.5148 46.6575 73.529 46.5967 73.5286 46.5351V41.3736C73.5286 41.2466 73.4966 41.1201 73.4651 40.9936C73.4016 40.8671 73.2751 40.7401 73.1486 40.7086C72.2752 40.3516 71.3601 40.1068 70.4251 39.9801C69.1248 39.7908 67.8126 39.6961 66.4986 39.6957Z" fill="#31A8FF"/>
</svg>
