<svg width="100" height="100" viewBox="0 0 100 100" fill="none" xmlns="http://www.w3.org/2000/svg">
<path d="M36.6129 60.2166C36.2379 57.7697 35.2066 55.7822 32.7035 54.8212C31.7238 54.4462 30.8754 53.7618 29.9097 53.3305C28.8129 52.8383 27.6972 52.3696 26.5394 52.0649C25.6629 51.8305 24.8472 52.2243 24.3269 52.993C23.8347 53.7149 24.191 54.3946 24.6035 54.9993C25.0675 55.679 25.5832 56.3258 26.1035 56.9633C26.966 58.0227 27.88 59.0399 28.7191 60.1135C29.5207 61.1401 30.205 62.2791 30.0879 63.6385C29.83 66.6197 28.48 69.0902 26.305 71.101C26.066 71.3166 25.6441 71.4713 25.3347 71.4432C23.9472 71.2932 22.6863 70.7682 21.6691 69.7979C20.5019 68.6869 20.68 67.3791 22.0769 66.5682C22.4097 66.376 22.7566 66.1979 23.0613 65.9635C23.9144 65.3213 24.2004 64.2244 23.7363 63.2729C23.516 62.8135 23.2675 62.3166 22.9019 61.9838C21.116 60.3572 19.3627 58.679 17.4502 57.1979C12.8141 53.5977 10.433 48.8354 10.0672 43.0696C9.65473 36.6663 11.1407 30.6897 14.5204 25.2193C15.8 23.1427 17.2907 21.1644 19.5782 20.138C21.1344 19.4396 22.8407 19.0458 24.5049 18.6099C29.0847 17.4052 33.7064 16.5005 38.4738 17.3068C42.58 17.9958 45.5849 20.1099 46.963 24.1458C47.8677 26.7849 48.0833 29.513 47.8021 32.3069C47.2489 37.7962 43.1943 42.704 37.9066 44.1571C35.6144 44.7852 34.3629 44.4337 32.9847 42.5258C31.9957 41.1524 31.1754 39.6571 30.2894 38.2085C30.1582 37.9929 30.0644 37.7444 29.9519 37.5147C29.8441 37.2851 29.7269 37.0647 29.6144 36.8351C29.9472 39.2163 30.5004 41.5087 31.7988 43.5522C32.5019 44.6632 33.4394 45.4835 34.8129 45.6054C39.866 46.0601 44.1318 44.4007 47.1599 40.3365C50.5489 35.7894 51.2944 30.5582 50.3146 25.0504C50.1224 23.9629 49.7989 22.8988 49.5693 21.816C49.4146 21.1176 49.6911 20.6019 50.3802 20.3582C50.6989 20.2504 51.0271 20.1613 51.3458 20.0957C55.4804 19.2051 59.6616 18.9097 63.8757 19.3363C68.6571 19.8144 73.1805 21.1269 77.2258 23.7849C83.5588 27.9521 87.4822 33.8819 89.615 41.054C89.9244 42.0946 89.9713 43.2337 89.9994 44.3307C90.0182 45.0619 89.5494 45.2541 88.9916 44.7947C88.3775 44.2932 87.815 43.7213 87.2854 43.1307C86.7932 42.5729 86.3994 41.9354 85.9213 41.3494C85.551 40.8901 85.2275 40.9604 85.0494 41.5322C84.9369 41.8791 84.8385 42.2213 84.74 42.5682C83.6338 46.5151 81.89 50.1151 79.0635 53.148C78.6697 53.5746 78.3182 54.2074 78.2713 54.7699C78.1494 56.3262 78.0604 57.9152 78.2104 59.4668C78.5197 62.7997 79.0025 66.1183 79.3775 69.4466C79.5885 71.3263 78.9838 72.4326 77.2166 73.0843C75.9744 73.539 74.6432 73.8718 73.3307 73.9655C71.24 74.1108 69.1307 74.0077 67.0307 74.0077C66.9744 71.664 67.176 69.3622 64.9729 68.106C65.3994 66.3669 65.8916 64.7169 66.1869 63.0294C66.4307 61.6279 66.2244 60.2497 65.24 59.1013C64.3166 58.0185 63.1588 57.7232 62.0993 58.3419C58.9071 60.2029 55.5882 60.2122 52.2085 58.9935C50.6569 58.431 49.5741 58.7497 48.7161 60.1654C47.7927 61.6888 47.4036 63.3997 47.5068 65.1296C47.638 67.3093 48.0177 69.4655 48.3083 71.6358C48.4677 72.8499 48.3318 73.164 47.1271 73.4733C44.4505 74.153 41.7271 74.228 38.9894 74.0077C38.8441 73.9937 38.6988 73.9327 38.605 73.9093C38.4691 71.6358 38.7082 69.2732 35.9988 68.0638C37.1988 65.5185 37.0347 62.8794 36.6222 60.2404L36.6129 60.2169V60.2166ZM20.4314 51.2963C20.8299 50.9213 21.1486 50.3354 21.2611 49.7963C21.5424 48.4463 20.5299 46.6369 19.358 46.1354C18.7346 45.8635 18.1908 45.9619 17.7502 46.4588C16.6768 47.6729 15.6174 48.901 14.5625 50.134C14.3844 50.3449 14.225 50.5933 14.0985 50.8418C13.6766 51.6527 13.925 52.2433 14.825 52.4637C15.3688 52.5996 15.9313 52.6277 16.4891 52.7074C17.9422 52.5668 19.3485 52.323 20.4313 51.3012L20.4314 51.2963ZM20.5533 37.8008C20.5486 36.8352 19.7424 36.029 18.7908 36.0243C17.8111 36.0196 16.9674 36.8962 17.0002 37.8618C17.0424 38.8321 17.8486 39.6102 18.8143 39.5915C19.7893 39.5774 20.5674 38.7805 20.558 37.8055L20.5533 37.8008Z" fill="black"/>
</svg>
