<svg width="100" height="100" viewBox="0 0 100 100" fill="none" xmlns="http://www.w3.org/2000/svg">
<path d="M50 22.9167C21.9625 22.9167 0 34.8126 0 50.0001C0 65.1876 21.9625 77.0834 50 77.0834C78.0375 77.0834 100 65.1876 100 50.0001C100 34.8126 78.0375 22.9167 50 22.9167ZM44.8083 31.2501H50.2667L48.5333 39.5834H53.4083C56.5 39.5834 58.575 40.0167 59.7583 41.0959C60.9125 42.1626 61.2625 43.9126 60.8 46.2959L58.6333 56.2501H53.0833L55.0792 47.0459C55.3208 45.7834 55.225 44.9043 54.8 44.4418C54.3792 43.9793 53.45 43.7501 52.0583 43.7501H47.6875L45.05 56.2501H39.5833L44.8083 31.2501ZM20.8333 39.5834H31.9417C37.2375 39.5834 40.4458 43.1334 39.1917 48.4293C37.7333 54.5834 33.8333 56.2501 26.65 56.2501H23.2167L22.1292 62.5001H16.6083L20.8333 39.5834ZM64.5833 39.5834H75.6917C80.9875 39.5834 84.1958 43.1334 82.9417 48.4293C81.4833 54.5834 77.5792 56.2501 70.4 56.2501H66.9667L65.8792 62.5001H60.3583L64.5833 39.5834ZM25.5625 43.7501L23.9917 52.0834H27.5542C30.6375 52.0834 33.5042 51.7334 33.9833 47.1376C34.1625 45.3542 33.4208 43.7501 29.8583 43.7501H25.5625ZM69.3125 43.7501L67.7417 52.0834H71.3042C74.3875 52.0834 77.2542 51.7334 77.7333 47.1376C77.9125 45.3542 77.175 43.7501 73.6083 43.7501H69.3125Z" fill="black"/>
</svg>
