<svg width="80" height="80" viewBox="0 0 80 80" fill="none" xmlns="http://www.w3.org/2000/svg">
<g clip-path="url(#clip0_345_26)">
<path d="M26.6129 54.6575C26.2379 52.2107 25.2066 50.2232 22.7035 49.2621C21.7238 48.8871 20.8754 48.2027 19.9097 47.7714C18.8129 47.2793 17.6972 46.8105 16.5394 46.5058C15.6629 46.2714 14.8472 46.6652 14.3269 47.4339C13.8347 48.1558 14.191 48.8355 14.6035 49.4402C15.0675 50.1199 15.5832 50.7668 16.1035 51.4043C16.966 52.4636 17.88 53.4808 18.7191 54.5544C19.5207 55.581 20.205 56.72 20.0879 58.0794C19.83 61.0607 18.48 63.5311 16.305 65.5419C16.066 65.7575 15.6441 65.9122 15.3347 65.8841C13.9472 65.7341 12.6863 65.2091 11.6691 64.2388C10.5019 63.1278 10.68 61.82 12.0769 61.0091C12.4097 60.8169 12.7566 60.6388 13.0613 60.4044C13.9144 59.7622 14.2004 58.6653 13.7363 57.7138C13.516 57.2544 13.2675 56.7575 12.9019 56.4247C11.116 54.7982 9.3627 53.1199 7.4502 51.6388C2.8141 48.0386 0.433009 43.2763 0.0672282 37.5105C-0.345272 31.1072 1.14067 25.1307 4.52035 19.6602C5.80004 17.5836 7.29067 15.6053 9.57817 14.5789C11.1344 13.8805 12.8407 13.4868 14.5049 13.0508C19.0847 11.8461 23.7064 10.9414 28.4738 11.7477C32.58 12.4368 35.5849 14.5508 36.963 18.5868C37.8677 21.2258 38.0833 23.9539 37.8021 26.7478C37.2489 32.2371 33.1943 37.1449 27.9066 38.598C25.6144 39.2261 24.3629 38.8746 22.9847 36.9668C21.9957 35.5933 21.1754 34.098 20.2894 32.6494C20.1582 32.4338 20.0644 32.1853 19.9519 31.9557C19.8441 31.726 19.7269 31.5057 19.6144 31.276C19.9472 33.6572 20.5004 35.9496 21.7988 37.9932C22.5019 39.1041 23.4394 39.9244 24.8129 40.0463C29.866 40.501 34.1318 38.8416 37.1599 34.7774C40.5489 30.2303 41.2944 24.9991 40.3146 19.4913C40.1224 18.4038 39.7989 17.3397 39.5693 16.2569C39.4146 15.5585 39.6911 15.0428 40.3802 14.7991C40.699 14.6913 41.0271 14.6022 41.3458 14.5366C45.4804 13.646 49.6616 13.3507 53.8757 13.7772C58.6571 14.2554 63.1805 15.5678 67.2258 18.2258C73.5588 22.393 77.4822 28.3228 79.615 35.4949C79.9244 36.5355 79.9713 37.6746 79.9994 38.7716C80.0182 39.5028 79.5494 39.695 78.9916 39.2357C78.3775 38.7341 77.815 38.1622 77.2854 37.5716C76.7932 37.0138 76.3994 36.3763 75.9213 35.7903C75.551 35.331 75.2275 35.4013 75.0494 35.9732C74.9369 36.32 74.8385 36.6622 74.74 37.0091C73.6338 40.956 71.89 44.556 69.0635 47.5889C68.6697 48.0155 68.3182 48.6483 68.2713 49.2108C68.1494 50.7671 68.0604 52.3561 68.2104 53.9077C68.5197 57.2407 69.0025 60.5593 69.3775 63.8875C69.5885 65.7672 68.9838 66.8735 67.2166 67.5252C65.9744 67.9799 64.6432 68.3127 63.3307 68.4064C61.24 68.5517 59.1307 68.4486 57.0307 68.4486C56.9744 66.1049 57.176 63.8032 54.9729 62.5469C55.3994 60.8078 55.8916 59.1578 56.1869 57.4703C56.4307 56.0688 56.2244 54.6907 55.24 53.5422C54.3166 52.4594 53.1588 52.1641 52.0993 52.7828C48.9071 54.6438 45.5882 54.6532 42.2085 53.4344C40.6569 52.8719 39.5741 53.1907 38.7161 54.6063C37.7927 56.1297 37.4036 57.8407 37.5068 59.5705C37.638 61.7502 38.0177 63.9064 38.3083 66.0767C38.4677 67.2908 38.3318 67.6049 37.1271 67.9142C34.4505 68.5939 31.7271 68.6689 28.9894 68.4486C28.8441 68.4346 28.6988 68.3736 28.605 68.3502C28.4691 66.0768 28.7082 63.7141 25.9988 62.5047C27.1988 59.9594 27.0347 57.3203 26.6222 54.6813L26.6129 54.6578V54.6575ZM10.4314 45.7372C10.8299 45.3622 11.1486 44.7763 11.2611 44.2372C11.5424 42.8872 10.5299 41.0778 9.35801 40.5763C8.73457 40.3044 8.19082 40.4028 7.7502 40.8997C6.67676 42.1138 5.61738 43.3419 4.56254 44.5749C4.38442 44.7858 4.22504 45.0343 4.09848 45.2827C3.6766 46.0936 3.92504 46.6843 4.82504 46.9046C5.36879 47.0405 5.93129 47.0686 6.4891 47.1483C7.94223 47.0077 9.34848 46.7639 10.4313 45.7421L10.4314 45.7372ZM10.5533 32.2418C10.5486 31.2761 9.74238 30.4699 8.79082 30.4652C7.81113 30.4605 6.96738 31.3371 7.0002 32.3027C7.04238 33.273 7.84863 34.0511 8.81426 34.0324C9.78926 34.0183 10.5674 33.2214 10.558 32.2464L10.5533 32.2418Z" fill="black"/>
</g>
<defs>
<clipPath id="clip0_345_26">
<rect width="80" height="80" fill="white"/>
</clipPath>
</defs>
</svg>
