<svg width="100" height="100" viewBox="0 0 100 100" fill="none" xmlns="http://www.w3.org/2000/svg">
<g clip-path="url(#clip0_357_19)">
<path d="M43.8729 38.6109C42.7318 38.1608 41.5094 37.9536 40.2838 38.0026C39.1782 37.9798 38.0723 38.0001 36.9683 38.0634V48.2834L38.1546 48.3442H39.7667C40.9529 48.3442 42.1392 48.1617 43.2646 47.7967C44.2379 47.523 45.0896 46.9451 45.7588 46.1847C46.3975 45.4242 46.7017 44.3901 46.7017 43.0517C46.7703 42.1058 46.5322 41.1628 46.0227 40.3629C45.5131 39.5629 44.7592 38.9486 43.8729 38.6109ZM73.0729 13.9126H25.9271C22.4986 13.9126 19.2106 15.2746 16.7863 17.6988C14.362 20.1231 13 23.4112 13 26.8397L13 72.1605C13 79.3084 18.7792 85.0875 25.9271 85.0875H73.0729C80.2208 85.0875 86 79.3084 86 72.1605V26.8397C86 19.6918 80.2208 13.9126 73.0729 13.9126ZM51.5075 49.348C50.2908 51.0513 48.5875 52.3288 46.6104 53.0588C44.5421 53.8192 42.2608 54.093 39.7667 54.093L38.2458 54.0626L36.9379 54.0321V63.7959C36.9465 63.8462 36.9445 63.8977 36.932 63.9472C36.9195 63.9967 36.8967 64.043 36.8652 64.0831C36.8336 64.1232 36.7941 64.1563 36.749 64.1802C36.7039 64.204 36.6542 64.2182 36.6033 64.2217H30.7025C30.4592 64.2217 30.3375 64.1001 30.3375 63.8263V32.5276C30.3375 32.3147 30.4288 32.193 30.6417 32.193L32.345 32.1626L34.6567 32.1017L37.3029 32.0409L40.0708 32.0105C42.565 32.0105 44.6333 32.3147 46.3367 32.9534C47.8575 33.4705 49.2567 34.3222 50.4125 35.4476C51.3858 36.4209 52.1463 37.6072 52.6329 38.9151C53.0892 40.1926 53.3325 41.5005 53.3325 42.8692C53.3325 45.4851 52.7242 47.6446 51.5075 49.348ZM72.2517 39.7667V45.698C72.2517 45.9413 72.0996 46.0326 71.765 46.0326C69.7582 45.9597 67.761 46.3445 65.925 47.158C65.3471 47.4317 64.7996 47.7967 64.3737 48.2834V63.7959C64.3737 64.1001 64.2521 64.2217 63.9783 64.2217H57.9863C57.9303 64.2303 57.8731 64.2276 57.8182 64.2138C57.7632 64.2001 57.7116 64.1755 57.6662 64.1415C57.6209 64.1075 57.5828 64.0648 57.5542 64.0159C57.5256 63.967 57.507 63.9129 57.4996 63.8567V46.8842L57.4692 44.603L57.4083 42.2305C57.4083 41.5309 57.3475 40.8617 57.2867 40.1622C57.2763 40.0901 57.292 40.0168 57.3311 39.9554C57.3702 39.894 57.4299 39.8487 57.4996 39.8276H62.9138C63.2179 39.8276 63.4613 40.0405 63.5221 40.3142C63.7984 41.2208 63.9318 42.1649 63.9175 43.1126C64.83 42.048 65.9554 41.1659 67.2025 40.4967C68.6164 39.7114 70.2085 39.3028 71.8258 39.3105C72.0388 39.2801 72.2213 39.4322 72.2517 39.6451V39.7667Z" fill="black"/>
</g>
<defs>
<clipPath id="clip0_357_19">
<rect width="73" height="73" fill="white" transform="translate(13 13)"/>
</clipPath>
</defs>
</svg>
