<svg width="80" height="80" viewBox="0 0 80 80" fill="none" xmlns="http://www.w3.org/2000/svg">
<g clip-path="url(#clip0_202_265)">
<path d="M47.5 0.6L50.5 1.26667L52.9334 2.13333L54.9 3.13333L56.4 4.2L57.5334 5.33333L58.3667 6.46667L58.9 7.56667L59.2334 8.56667L59.3667 9.43333L59.4334 10.1L59.4 10.5333V28.3333L59.2334 30.4333L58.8 32.2667L58.1 33.8L57.2334 35.0667L56.2334 36.1L55.1334 36.9333L53.9667 37.5667L52.8 38.0333L51.7001 38.3667L50.7001 38.6L49.8334 38.7333L49.1334 38.8H29.2334L26.9334 38.9667L24.9667 39.4333L23.3 40.1667L21.9334 41.0667L20.8334 42.1333L19.9334 43.3L19.2667 44.5L18.7667 45.7333L18.4334 46.9L18.2 47.9667L18.0667 48.8667L18 49.5667V59.7667H10.5667L9.86672 59.6667L8.93338 59.4333L7.86671 59.0333L6.70005 58.4333L5.50005 57.5667L4.30005 56.3667L3.13338 54.8333L2.06672 52.8667L1.13338 50.4333L0.433382 47.5L-0.0332845 44L-0.199951 39.9L4.88162e-05 35.8333L0.533382 32.3667L1.33338 29.4667L2.40005 27.1L3.60005 25.2L4.93338 23.7333L6.33338 22.6333L7.73338 21.8333L9.06672 21.3L10.2667 20.9667L11.3334 20.8L12.1334 20.7667H12.6667L12.8667 20.8H40.0667V18.0333H20.6L20.5667 8.86667L20.5 7.63333L20.6667 6.5L21.0334 5.46667L21.6 4.53333L22.4334 3.66667L23.4667 2.9L24.7334 2.23333L26.2 1.63333L27.9 1.13333L29.8334 0.733333L31.9667 0.4L34.3334 0.2L36.9 0.0666667L39.7001 0L43.9334 0.166667L47.5 0.6ZM26.5 7.2L25.7334 8.3L25.4667 9.66667L25.7334 11.0333L26.5 12.1667L27.6 12.9L28.9667 13.2L30.3334 12.9L31.4334 12.1667L32.2001 11.0333L32.4667 9.66667L32.2001 8.3L31.4334 7.2L30.3334 6.46667L28.9667 6.16667L27.6 6.46667L26.5 7.2ZM70.1334 20.3667L71.0667 20.5667L72.1334 20.9667L73.3 21.5667L74.5 22.4667L75.7 23.6333L76.8667 25.2L77.9334 27.1667L78.8667 29.6L79.5667 32.5333L80.0334 36L80.2 40.1L80 44.2L79.4667 47.6667L78.6667 50.5333L77.6 52.9L76.4 54.8L75.0667 56.3L73.6667 57.4L72.2667 58.2L70.9334 58.7333L69.7334 59.0333L68.6667 59.2L67.8667 59.2667L67.3334 59.2333H39.9334V61.9667H59.4L59.4334 71.1667L59.5 72.3667L59.3334 73.5L58.9667 74.5333L58.4 75.5L57.5667 76.3333L56.5334 77.1333L55.2667 77.8L53.8 78.3667L52.1 78.8667L50.1667 79.3L48.0334 79.6L45.6667 79.8333L43.1001 79.9667L40.3 80L36.0667 79.8667L32.5 79.4L29.5001 78.7333L27.0667 77.9L25.1 76.9L23.6 75.8L22.4667 74.6667L21.6334 73.5333L21.1 72.4333L20.7667 71.4333L20.6334 70.6L20.5667 69.9333L20.6 69.5V51.7L20.7667 49.5667L21.2 47.7667L21.9 46.2333L22.7667 44.9667L23.7667 43.9L24.8667 43.1L26.0334 42.4333L27.2 41.9667L28.3 41.6333L29.3 41.4333L30.1667 41.3L30.8667 41.2333L31.3001 41.2H50.7667L53.0667 41.0333L55.0334 40.5667L56.7 39.8667L58.0667 38.9333L59.1667 37.8667L60.0667 36.7L60.7334 35.5L61.2334 34.3L61.5667 33.1333L61.8 32.0667L61.9334 31.1333L62 30.4333V20.2333H68.9667L69.4334 20.2667L70.1334 20.3667ZM48.5667 67.8667L47.8 68.9667L47.5334 70.3333L47.8 71.7L48.5667 72.8L49.6667 73.5667L51.0334 73.8333L52.4001 73.5667L53.5 72.8L54.2667 71.7L54.5334 70.3333L54.2667 68.9667L53.5 67.8667L52.4001 67.1L51.0334 66.8333L49.6667 67.1L48.5667 67.8667Z" fill="black"/>
</g>
<defs>
<clipPath id="clip0_202_265">
<rect width="80" height="80" fill="white"/>
</clipPath>
</defs>
</svg>
