<svg width="80" height="80" viewBox="0 0 80 80" fill="none" xmlns="http://www.w3.org/2000/svg">
<g clip-path="url(#clip0_345_28)">
<path d="M61.25 0H18.75C8.39466 0 0 8.39466 0 18.75V61.25C0 71.6053 8.39466 80 18.75 80H61.25C71.6053 80 80 71.6053 80 61.25V18.75C80 8.39466 71.6053 0 61.25 0Z" fill="#F4F2ED"/>
<path d="M39.7747 9.0625C23.9084 9.0625 24.8991 15.9431 24.8991 15.9431L24.9169 23.0713H40.0578V25.2119H18.9028C18.9028 25.2119 8.75 24.06 8.75 40.0691C8.75 56.0784 17.6116 55.5109 17.6116 55.5109H22.9003V48.0819C22.9003 48.0819 22.6153 39.2203 31.6206 39.2203H46.6375C46.6375 39.2203 55.0747 39.3566 55.0747 31.0659V17.3581C55.0747 17.3581 56.3556 9.0625 39.7747 9.0625ZM31.4259 13.8559C31.7838 13.8556 32.1382 13.9258 32.4688 14.0625C32.7995 14.1993 33.0999 14.3999 33.353 14.653C33.606 14.906 33.8066 15.2064 33.9434 15.5371C34.0802 15.8678 34.1504 16.2222 34.15 16.58C34.1503 16.9378 34.0801 17.2922 33.9433 17.6228C33.8065 17.9534 33.6059 18.2538 33.3529 18.5068C33.0998 18.7598 32.7994 18.9604 32.4688 19.0972C32.1381 19.2339 31.7837 19.3041 31.4259 19.3037C31.0682 19.3041 30.7138 19.2339 30.3832 19.0971C30.0526 18.9603 29.7522 18.7597 29.4992 18.5067C29.2462 18.2537 29.0456 17.9533 28.9088 17.6227C28.7721 17.2921 28.7019 16.9378 28.7022 16.58C28.7018 16.2222 28.772 15.8678 28.9088 15.5372C29.0455 15.2065 29.2461 14.9061 29.4991 14.6531C29.7521 14.4001 30.0525 14.1994 30.3831 14.0626C30.7138 13.9258 31.0681 13.8556 31.4259 13.8559Z" fill="url(#paint0_linear_345_28)"/>
<path d="M40.2254 71.2368C56.0916 71.2368 55.101 64.3565 55.101 64.3565L55.0832 57.2281H39.9422V55.0878H61.0972C61.0972 55.0878 71.25 56.2393 71.25 40.2299C71.25 24.2206 62.3885 24.7884 62.3885 24.7884H57.0997V32.2174C57.0997 32.2174 57.3847 41.079 48.3794 41.079H33.3625C33.3625 41.079 24.925 40.9424 24.925 49.2331V62.9412C24.925 62.9412 23.6441 71.2368 40.2254 71.2368ZM48.5741 66.4434C48.2163 66.4437 47.8619 66.3736 47.5313 66.2368C47.2006 66.1001 46.9002 65.8994 46.6472 65.6465C46.3942 65.3935 46.1935 65.0931 46.0567 64.7624C45.92 64.4318 45.8497 64.0774 45.85 63.7196C45.8497 63.3618 45.9199 63.0074 46.0566 62.6767C46.1934 62.3461 46.394 62.0456 46.6471 61.7926C46.9001 61.5396 47.2005 61.3389 47.5312 61.2022C47.8619 61.0654 48.2163 60.9952 48.5741 60.9956C48.9319 60.9952 49.2863 61.0655 49.6169 61.2023C49.9476 61.339 50.248 61.5397 50.501 61.7927C50.7541 62.0457 50.9547 62.3461 51.0915 62.6768C51.2283 63.0074 51.2985 63.3618 51.2982 63.7196C51.2985 64.0774 51.2282 64.4318 51.0914 64.7624C50.9546 65.093 50.7539 65.3934 50.5009 65.6464C50.2479 65.8993 49.9475 66.1 49.6169 66.2367C49.2862 66.3735 48.9319 66.4437 48.5741 66.4434Z" fill="url(#paint1_linear_345_28)"/>
</g>
<defs>
<linearGradient id="paint0_linear_345_28" x1="14.7562" y1="14.655" x2="45.7291" y2="45.3187" gradientUnits="userSpaceOnUse">
<stop stop-color="#387EB8"/>
<stop offset="1" stop-color="#366994"/>
</linearGradient>
<linearGradient id="paint1_linear_345_28" x1="33.7675" y1="34.3453" x2="67.0288" y2="65.7881" gradientUnits="userSpaceOnUse">
<stop stop-color="#FFE052"/>
<stop offset="1" stop-color="#FFC331"/>
</linearGradient>
<clipPath id="clip0_345_28">
<rect width="80" height="80" fill="white"/>
</clipPath>
</defs>
</svg>
