<svg width="100" height="100" viewBox="0 0 100 100" fill="none" xmlns="http://www.w3.org/2000/svg">
<path d="M71.25 10H28.75C18.3947 10 10 18.3947 10 28.75V71.25C10 81.6053 18.3947 90 28.75 90H71.25C81.6053 90 90 81.6053 90 71.25V28.75C90 18.3947 81.6053 10 71.25 10Z" fill="#F4F2ED"/>
<path d="M49.7747 19.0625C33.9084 19.0625 34.8991 25.9431 34.8991 25.9431L34.9169 33.0713H50.0578V35.2119H28.9028C28.9028 35.2119 18.75 34.06 18.75 50.0691C18.75 66.0784 27.6116 65.5109 27.6116 65.5109H32.9003V58.0819C32.9003 58.0819 32.6153 49.2203 41.6206 49.2203H56.6375C56.6375 49.2203 65.0747 49.3566 65.0747 41.0659V27.3581C65.0747 27.3581 66.3556 19.0625 49.7747 19.0625ZM41.4259 23.8559C41.7838 23.8556 42.1382 23.9258 42.4688 24.0625C42.7995 24.1993 43.0999 24.3999 43.353 24.653C43.606 24.906 43.8066 25.2064 43.9434 25.5371C44.0802 25.8678 44.1504 26.2222 44.15 26.58C44.1503 26.9378 44.0801 27.2922 43.9433 27.6228C43.8065 27.9534 43.6059 28.2538 43.3529 28.5068C43.0998 28.7598 42.7994 28.9604 42.4688 29.0972C42.1381 29.2339 41.7837 29.3041 41.4259 29.3038C41.0682 29.3041 40.7138 29.2339 40.3832 29.0971C40.0526 28.9603 39.7522 28.7597 39.4992 28.5067C39.2462 28.2537 39.0456 27.9533 38.9088 27.6227C38.7721 27.2921 38.7019 26.9378 38.7022 26.58C38.7018 26.2222 38.772 25.8678 38.9088 25.5372C39.0455 25.2065 39.2461 24.9061 39.4991 24.6531C39.7521 24.4001 40.0525 24.1994 40.3831 24.0626C40.7138 23.9258 41.0681 23.8556 41.4259 23.8559Z" fill="url(#paint0_linear_345_28)"/>
<path d="M50.2254 81.2368C66.0916 81.2368 65.101 74.3565 65.101 74.3565L65.0832 67.2281H49.9422V65.0878H71.0972C71.0972 65.0878 81.25 66.2393 81.25 50.2299C81.25 34.2206 72.3885 34.7884 72.3885 34.7884H67.0997V42.2174C67.0997 42.2174 67.3847 51.079 58.3794 51.079H43.3625C43.3625 51.079 34.925 50.9424 34.925 59.2331V72.9412C34.925 72.9412 33.6441 81.2368 50.2254 81.2368ZM58.5741 76.4434C58.2163 76.4437 57.8619 76.3736 57.5313 76.2368C57.2006 76.1001 56.9002 75.8994 56.6472 75.6465C56.3942 75.3935 56.1935 75.0931 56.0567 74.7624C55.92 74.4318 55.8497 74.0774 55.85 73.7196C55.8497 73.3618 55.9199 73.0074 56.0566 72.6767C56.1934 72.3461 56.394 72.0456 56.6471 71.7926C56.9001 71.5396 57.2005 71.3389 57.5312 71.2022C57.8619 71.0654 58.2163 70.9952 58.5741 70.9956C58.9319 70.9952 59.2863 71.0655 59.6169 71.2023C59.9476 71.339 60.248 71.5397 60.501 71.7927C60.7541 72.0457 60.9547 72.3461 61.0915 72.6768C61.2283 73.0074 61.2985 73.3618 61.2982 73.7196C61.2985 74.0774 61.2282 74.4318 61.0914 74.7624C60.9546 75.093 60.7539 75.3934 60.5009 75.6464C60.2479 75.8993 59.9475 76.1 59.6169 76.2367C59.2862 76.3735 58.9319 76.4437 58.5741 76.4434Z" fill="url(#paint1_linear_345_28)"/>
<defs>
<linearGradient id="paint0_linear_345_28" x1="24.7562" y1="24.655" x2="55.7291" y2="55.3187" gradientUnits="userSpaceOnUse">
<stop stop-color="#387EB8"/>
<stop offset="1" stop-color="#366994"/>
</linearGradient>
<linearGradient id="paint1_linear_345_28" x1="43.7675" y1="44.3453" x2="77.0288" y2="75.7881" gradientUnits="userSpaceOnUse">
<stop stop-color="#FFE052"/>
<stop offset="1" stop-color="#FFC331"/>
</linearGradient>
</defs>
</svg>
