<svg width="100" height="100" viewBox="0 0 100 100" fill="none" xmlns="http://www.w3.org/2000/svg">
<path d="M45.8333 29.1667C43.6232 29.1667 41.5036 30.0446 39.9408 31.6074C38.378 33.1702 37.5 35.2899 37.5 37.5V45.8333C37.5 48.0435 38.378 50.1631 39.9408 51.7259C41.5036 53.2887 43.6232 54.1667 45.8333 54.1667H54.1667V62.5H37.5V70.8333H54.1667C56.3768 70.8333 58.4964 69.9554 60.0592 68.3926C61.622 66.8298 62.5 64.7101 62.5 62.5V54.1667C62.5 51.9565 61.622 49.8369 60.0592 48.2741C58.4964 46.7113 56.3768 45.8333 54.1667 45.8333H45.8333V37.5H62.5V29.1667H45.8333ZM20.8333 12.5H79.1667C81.3768 12.5 83.4964 13.378 85.0592 14.9408C86.622 16.5036 87.5 18.6232 87.5 20.8333V79.1667C87.5 81.3768 86.622 83.4964 85.0592 85.0592C83.4964 86.622 81.3768 87.5 79.1667 87.5H20.8333C18.6232 87.5 16.5036 86.622 14.9408 85.0592C13.378 83.4964 12.5 81.3768 12.5 79.1667V20.8333C12.5 18.6232 13.378 16.5036 14.9408 14.9408C16.5036 13.378 18.6232 12.5 20.8333 12.5Z" fill="black"/>
</svg>
