<svg width="100" height="100" viewBox="0 0 100 100" fill="none" xmlns="http://www.w3.org/2000/svg">
<path d="M77.8334 51.3333C76.0927 49.5925 74.0255 48.2123 71.7503 47.2719C69.4751 46.3316 67.0366 45.8495 64.5748 45.8534C62.1129 45.8572 59.676 46.347 57.4038 47.2945C55.1316 48.242 53.0687 49.6287 51.3334 51.375C49.5898 53.113 48.2064 55.1781 47.2625 57.4518C46.3185 59.7255 45.8326 62.1631 45.8326 64.625C45.8326 67.0869 46.3185 69.5245 47.2625 71.7982C48.2064 74.0719 49.5898 76.137 51.3334 77.875C54.3383 80.8669 58.2668 82.7545 62.4802 83.231C66.6937 83.7076 70.9445 82.7451 74.5417 80.5L87.5001 93.2917L93.2917 87.5L80.4167 74.5417C85.1251 67.1667 84.0418 57.5 77.8334 51.3333ZM71.9584 71.9583C67.8751 76.0417 61.2917 76 57.2084 71.9583C53.1667 67.875 53.1667 61.2917 57.2501 57.2083C61.2918 53.1667 67.8751 53.1667 71.9584 57.2083C76.0001 61.2917 76.0001 67.875 71.9584 71.9583ZM45.4167 83.75C42.6948 81.0048 40.5922 77.7087 39.2501 74.0833C26.1251 71.875 16.6667 65.6667 16.6667 58.3333V70.8333C16.6667 80.0417 31.5834 87.5 50.0001 87.5C48.3334 86.4167 46.7917 85.1667 45.4167 83.75ZM16.6667 37.5V50C16.6667 57 25.2917 63 37.5001 65.4167V64.5833C37.5001 60.7083 38.3334 56.875 39.9167 53.375C26.4167 51.25 16.6667 44.9583 16.6667 37.5ZM50.0001 12.5C31.5834 12.5 16.6667 19.9583 16.6667 29.1667C16.6667 37.5 29.1668 44.5 45.2084 45.8333H45.4167C50.4167 40.5833 57.3334 37.5 64.5834 37.5C68.3751 37.5 72.1251 38.2917 75.5834 39.8333C77.6842 38.8729 79.5014 37.3864 80.8591 35.5177C82.2168 33.649 83.0691 31.4614 83.3334 29.1667C83.3334 19.9583 68.4168 12.5 50.0001 12.5Z" fill="black"/>
</svg>
